  http://bayimg.com/nAjNAAaep


   
http://www.imdb.com/title/tt0882977/



Plot: A father goes undercover for the DEA in order to free his son who was imprisoned after being set up in drug deal. 



Director:
 Ric Roman Waugh

Writers:
 Justin Haythe, Ric Roman Waugh

Stars:
 Dwayne Johnson, Susan Sarandon, Jon Bernthal

Genres:
 Action | Drama | Thriller 

Country:
USA 



General
Complete name                            : RAT 2013 CAMRip Xvid-INF
Format                                   : AVI
Format/Info                              : Audio Video Interleave
File size                                : 696 MiB
Duration                                 : 1h 45mn
Overall bit rate mode                    : Variable
Overall bit rate                         : 920 Kbps
Writing application                      : VirtualDubMod 1.5.10.2 (build 2540/release)
Writing library                          : VirtualDub build 32842/release

Video
ID                                       : 0
Format                                   : MPEG-4 Visual
Format profile                           : Advanced Simple@L5
Format settings, BVOP                    : 2
Format settings, QPel                    : No
Format settings, GMC                     : No warppoints
Format settings, Matrix                  : Default (H.263)
Muxing mode                              : Packed bitstream
Codec ID                                 : XVID
Codec ID/Hint                            : XviD
Duration                                 : 1h 45mn
Bit rate                                 : 775 Kbps
Width                                    : 628 pixels
Height                                   : 238 pixels
Display aspect ratio                     : 2.639
Frame rate                               : 23.976 fps
Color space                              : YUV
Chroma subsampling                       : 4:2:0
Bit depth                                : 8 bits
Scan type                                : Progressive
Compression mode                         : Lossy
Bits/(Pixel*Frame)                       : 0.216
Stream size                              : 586 MiB (84%)
Writing library                          : XviD 64

Audio
ID                                       : 1
Format                                   : MPEG Audio
Format version                           : Version 1
Format profile                           : Layer 3
Mode                                     : Joint stereo
Mode extension                           : MS Stereo
Codec ID                                 : 55
Codec ID/Hint                            : MP3
Duration                                 : 1h 45mn
Bit rate mode                            : Variable
Bit rate                                 : 128 Kbps
Channel(s)                               : 2 channels
Sampling rate                            : 48.0 KHz
Compression mode                         : Lossy
Stream size                              : 100 MiB (14%)
Alignment                                : Aligned on interleaves
Interleave, duration                     : 24 ms (0.58 video frame)
Interleave, preload duration             : 497 ms
Writing library                          : LAME3.90.
Encoding settings                        : -m j -V 4 -q 2 -lowpass 17.6 --abr 128


 
http://www.shotpix.com/images/54874695946208535993.png 
http://www.shotpix.com/images/59846493951158211724.png 
http://www.shotpix.com/images/62302838810964472035.png
